# xmcd CD database file
#
# Track frame offsets:
#	150
#	15859
#	37375
#	57624
#	76065
#	95807
#	114038
#	132992
#	156374
#	175888
#	194972
#
# Disc length: 2931 seconds
#
# Revision: 4
# Processed by: cddbd v1.5.2PL0 Copyright (c) Steve Scherf et al.
# Submitted via: CDex 1.51
#
DISCID=960b710b
DTITLE=Kenny Chesney - Just Who I Am: Poets and Pirates
DYEAR=2007
DGENRE=Country
TTITLE0=Kenny Chesney - Never Wanted Nothing More
TTITLE1=Kenny Chesney - Don't Blink
TTITLE2=Kenny Chesney with George Strait - Shiftwork
TTITLE3=Kenny Chesney - Just Not Today
TTITLE4=Kenny Chesney - Wife and Kids
TTITLE5=Kenny Chesney - Got a Little Crazy
TTITLE6=Kenny Chesney - Better as a Memory
TTITLE7=Kenny Chesney - Dancin' for the Groceries
TTITLE8=Kenny Chesney feat. Joe Walsh - Wild Ride
TTITLE9=Kenny Chesney - Scare Me
TTITLE10=Kenny Chesney - Demons
EXTD=YEAR: 2007
EXTT0=
EXTT1=
EXTT2=
EXTT3=
EXTT4=
EXTT5=
EXTT6=
EXTT7=
EXTT8=
EXTT9=
EXTT10=
PLAYORDER=
